# xmcd
#
# Track frame offsets:
#	150
#	10827
#	20475
#	32647
#	46220
#	54417
#	71335
#	83340
#	98977
#	109077
#	125642
#	135442
#	144625
#
# Disc length: 2084 seconds
#
# Revision: 1
# Processed by: cddbd v1.5.1PL0 Copyright (c) Steve Scherf et al.
# Submitted via: audiograbber 1.82.02
#
DISCID=a208220d
DTITLE=John Hore - Great Country Hits
DYEAR=1996
DGENRE=Country
TTITLE0=Think Of Me
TTITLE1=Setup Those Cards Again
TTITLE2=She Wears My Ring
TTITLE3=By The Time I Get To Phoenix
TTITLE4=Living In A Wonderful World
TTITLE5=Mother
TTITLE6=I Really Don't Want To Know
TTITLE7=The Last Thing On My Mind
TTITLE8=Little Old You
TTITLE9=Little Green Apples
TTITLE10=Deep Water
TTITLE11=Before You Go
TTITLE12=Born For You
EXTD=
EXTT0=
EXTT1=
EXTT2=
EXTT3=
EXTT4=
EXTT5=
EXTT6=
EXTT7=
EXTT8=
EXTT9=
EXTT10=
EXTT11=
EXTT12=
PLAYORDER=
